<mxfile host="app.diagrams.net" modified="2021-05-02T17:57:42.436Z" agent="5.0 (Windows NT 10.0; Win64; x64) AppleWebKit/537.36 (KHTML, like Gecko) Chrome/90.0.4430.93 Safari/537.36" etag="oC7OWuzxGE3y-qaXdNiG" compressed="false" version="14.6.9" type="github">
  <diagram id="twWZiBStezyjlwryW4HY" name="Page-1">
    <mxGraphModel dx="864" dy="699" grid="1" gridSize="10" guides="1" tooltips="1" connect="1" arrows="1" fold="1" page="1" pageScale="1" pageWidth="850" pageHeight="1100" math="0" shadow="0">
      <root>
        <mxCell id="0" />
        <mxCell id="1" parent="0" />
        <mxCell id="2PW_XlCXHhftzuh_x0L7-1" value="" style="rounded=0;whiteSpace=wrap;html=1;" parent="1" vertex="1">
          <mxGeometry x="215" y="170" width="440" height="480" as="geometry" />
        </mxCell>
        <mxCell id="2PW_XlCXHhftzuh_x0L7-16" value="Search for Available Rooms" style="ellipse;whiteSpace=wrap;html=1;" parent="1" vertex="1">
          <mxGeometry x="270" y="250" width="120" height="80" as="geometry" />
        </mxCell>
        <mxCell id="2PW_XlCXHhftzuh_x0L7-17" value="Book Room" style="ellipse;whiteSpace=wrap;html=1;" parent="1" vertex="1">
          <mxGeometry x="435" y="250" width="120" height="80" as="geometry" />
        </mxCell>
        <mxCell id="2PW_XlCXHhftzuh_x0L7-18" value="Cancel Room/ Reservation" style="ellipse;whiteSpace=wrap;html=1;" parent="1" vertex="1">
          <mxGeometry x="435" y="370" width="120" height="80" as="geometry" />
        </mxCell>
        <mxCell id="2PW_XlCXHhftzuh_x0L7-22" value="" style="endArrow=classic;html=1;entryX=0.5;entryY=1;entryDx=0;entryDy=0;exitX=0.5;exitY=0;exitDx=0;exitDy=0;" parent="1" source="2PW_XlCXHhftzuh_x0L7-18" target="2PW_XlCXHhftzuh_x0L7-17" edge="1">
          <mxGeometry relative="1" as="geometry">
            <mxPoint x="445" y="340" as="sourcePoint" />
            <mxPoint x="545" y="340" as="targetPoint" />
          </mxGeometry>
        </mxCell>
        <mxCell id="2PW_XlCXHhftzuh_x0L7-23" value="&amp;lt;&amp;lt;includes&amp;gt;&amp;gt;" style="edgeLabel;resizable=0;html=1;align=center;verticalAlign=middle;" parent="2PW_XlCXHhftzuh_x0L7-22" connectable="0" vertex="1">
          <mxGeometry relative="1" as="geometry" />
        </mxCell>
        <mxCell id="2PW_XlCXHhftzuh_x0L7-24" value="Check-In&lt;br&gt;" style="ellipse;whiteSpace=wrap;html=1;" parent="1" vertex="1">
          <mxGeometry x="320" y="440" width="120" height="80" as="geometry" />
        </mxCell>
        <mxCell id="2PW_XlCXHhftzuh_x0L7-25" value="Check-Out" style="ellipse;whiteSpace=wrap;html=1;" parent="1" vertex="1">
          <mxGeometry x="440" y="520" width="120" height="80" as="geometry" />
        </mxCell>
        <mxCell id="2PW_XlCXHhftzuh_x0L7-26" value="" style="endArrow=none;html=1;entryX=0.5;entryY=1;entryDx=0;entryDy=0;" parent="1" target="2PW_XlCXHhftzuh_x0L7-16" edge="1">
          <mxGeometry width="50" height="50" relative="1" as="geometry">
            <mxPoint x="150" y="545" as="sourcePoint" />
            <mxPoint x="200" y="495" as="targetPoint" />
          </mxGeometry>
        </mxCell>
        <mxCell id="2PW_XlCXHhftzuh_x0L7-28" value="" style="endArrow=none;html=1;entryX=0;entryY=0.5;entryDx=0;entryDy=0;" parent="1" target="2PW_XlCXHhftzuh_x0L7-17" edge="1">
          <mxGeometry width="50" height="50" relative="1" as="geometry">
            <mxPoint x="150" y="545" as="sourcePoint" />
            <mxPoint x="200" y="495" as="targetPoint" />
          </mxGeometry>
        </mxCell>
        <mxCell id="2PW_XlCXHhftzuh_x0L7-29" value="" style="endArrow=none;html=1;entryX=0;entryY=0.5;entryDx=0;entryDy=0;" parent="1" target="2PW_XlCXHhftzuh_x0L7-24" edge="1">
          <mxGeometry width="50" height="50" relative="1" as="geometry">
            <mxPoint x="150" y="545" as="sourcePoint" />
            <mxPoint x="200" y="495" as="targetPoint" />
          </mxGeometry>
        </mxCell>
        <mxCell id="2PW_XlCXHhftzuh_x0L7-30" value="" style="endArrow=none;html=1;exitX=1;exitY=0.5;exitDx=0;exitDy=0;" parent="1" source="2PW_XlCXHhftzuh_x0L7-24" edge="1">
          <mxGeometry width="50" height="50" relative="1" as="geometry">
            <mxPoint x="440" y="475" as="sourcePoint" />
            <mxPoint x="710" y="550" as="targetPoint" />
          </mxGeometry>
        </mxCell>
        <mxCell id="2PW_XlCXHhftzuh_x0L7-31" value="" style="endArrow=none;html=1;entryX=0;entryY=0.5;entryDx=0;entryDy=0;" parent="1" target="2PW_XlCXHhftzuh_x0L7-25" edge="1">
          <mxGeometry width="50" height="50" relative="1" as="geometry">
            <mxPoint x="150" y="545" as="sourcePoint" />
            <mxPoint x="320.0000000000043" y="480" as="targetPoint" />
          </mxGeometry>
        </mxCell>
        <mxCell id="2PW_XlCXHhftzuh_x0L7-32" value="" style="endArrow=none;html=1;exitX=1;exitY=0.5;exitDx=0;exitDy=0;" parent="1" source="2PW_XlCXHhftzuh_x0L7-25" edge="1">
          <mxGeometry width="50" height="50" relative="1" as="geometry">
            <mxPoint x="560" y="565" as="sourcePoint" />
            <mxPoint x="710" y="550" as="targetPoint" />
          </mxGeometry>
        </mxCell>
        <mxCell id="2PW_XlCXHhftzuh_x0L7-33" value="Actor" style="shape=umlActor;verticalLabelPosition=bottom;verticalAlign=top;html=1;outlineConnect=0;" parent="1" vertex="1">
          <mxGeometry x="80" y="520" width="30" height="60" as="geometry" />
        </mxCell>
        <mxCell id="2PW_XlCXHhftzuh_x0L7-34" value="Hotel&lt;br&gt;" style="shape=umlActor;verticalLabelPosition=bottom;verticalAlign=top;html=1;outlineConnect=0;" parent="1" vertex="1">
          <mxGeometry x="740" y="520" width="30" height="60" as="geometry" />
        </mxCell>
        <mxCell id="2PW_XlCXHhftzuh_x0L7-37" value="Hotel Management System" style="text;html=1;strokeColor=none;fillColor=none;align=center;verticalAlign=middle;whiteSpace=wrap;rounded=0;" parent="1" vertex="1">
          <mxGeometry x="315" y="190" width="240" height="20" as="geometry" />
        </mxCell>
      </root>
    </mxGraphModel>
  </diagram>
</mxfile>
